<svg width="492" height="330" viewBox="0 0 492 330" fill="none" xmlns="http://www.w3.org/2000/svg">
<path d="M202.749 158.377H236.243L280.263 74.6426H378.352L309.929 195.221L378.352 320.583H280.263L248.275 258.424C261.915 250.215 272.725 238.29 279.564 224.349C281.308 220.794 280.435 216.531 277.434 213.948C258.913 198.006 233.315 190.516 207.33 195.839C181.347 201.161 160.755 218.11 149.993 240.047C148.249 243.601 149.121 247.864 152.122 250.447C165.972 262.37 183.78 269.564 202.749 270.21V320.583H113.273V0H202.749V158.377Z" fill="black"/>
<circle cx="194.296" cy="236.734" r="16.9919" transform="rotate(-2.38052 194.296 236.734)" fill="black"/>
</svg>

